<svg width="95" height="68" viewBox="0 0 95 68" fill="none" xmlns="http://www.w3.org/2000/svg">
<path d="M92.9869 50.6626C92.7691 49.086 91.5967 47.7651 90.6663 46.5838C89.545 45.4537 88.4237 44.3235 87.1626 43.4352C86.0924 42.4957 84.8824 41.798 83.4814 41.1515C84.2962 41.1376 85.3018 41.0725 86.1165 41.0586C88.5097 40.8261 89.9589 38.5984 88.3401 36.3753C86.8236 34.5335 83.7555 34.5381 81.6555 35.1008C79.5555 35.6635 77.6088 36.7983 76.0062 38.4539C75.7131 38.1237 73.6884 37.44 73.4464 37.3005C67.7539 35.147 61.884 33.8586 55.748 33.8678C57.7458 32.9237 59.5527 32.0308 61.3596 31.1379C66.5895 28.5103 71.7171 25.5014 76.5517 22.1622C80.1683 23.4413 83.8225 24.0971 87.4633 23.9391C89.9075 23.8973 94.363 23.7253 94.5 20.4186C94.6371 17.1119 90.0659 16.0886 87.6728 16.3211L87.4819 16.3722C89.6061 14.3724 91.3861 11.8517 92.1981 8.77294C92.4266 8.09858 92.0824 7.57768 91.4075 7.34978C87.8796 5.63821 84.6234 8.75881 82.4105 11.1911C81.6093 12.0189 80.9989 12.7956 80.3885 13.5723C80.3374 13.3816 80.4773 13.1398 80.4262 12.9491C80.5767 10.4563 80.4207 6.81934 78.0006 5.42405C76.7906 4.7264 75.2633 5.13563 74.2711 6.01461C73.1391 7.13543 72.9751 8.81436 73.0021 10.4421C73.107 13.8884 74.0267 17.3207 74.9464 20.753C67.1111 28.1662 44.1401 36.365 42.9946 36.6719C43.9357 35.6022 44.6859 34.5837 45.3849 33.3745C46.5035 31.4398 47.3289 29.1749 47.9634 26.9612C48.4958 24.366 48.5441 21.4919 49.5094 18.9851C53.6987 20.1107 63.3626 21.8131 62.2493 15.3671C61.776 12.837 59.5979 11.5813 57.1537 11.6231L57.2936 11.3812C58.7939 9.34422 61.0444 6.28871 60.3291 3.61914C59.5627 0.758883 56.3414 0.191412 54.064 1.61915C51.7865 3.04689 50.0065 5.56758 49.0413 8.07433C48.4444 9.66489 47.9496 11.6368 47.7857 13.3157C47.4791 12.1716 46.9816 11.0787 46.7262 10.1253C46.4196 8.98118 45.9221 7.88823 45.0939 7.08828C44.2657 6.28832 43.0181 6.21388 41.9748 6.90217C39.8883 8.27876 41.3296 11.3669 42.1712 12.9808C43.1662 15.1667 44.8226 16.7666 46.8097 18.0735C47.0517 18.213 47.0517 18.213 47.2426 18.1619C47.2937 18.3525 47.3448 18.5432 47.447 18.9246C46.7614 20.9477 46.5087 23.0591 46.256 25.1706C45.8634 27.5239 45.2289 29.7376 44.1615 31.863C42.3438 35.0069 39.7491 37.5415 36.6569 38.9832C33.8444 39.9412 30.8409 40.9504 27.9772 41.7177C29.3378 39.9225 30.5961 37.746 31.4726 35.6717C32.4379 33.165 33.1477 29.7048 31.9995 26.9469C31.502 25.8539 30.6738 25.0539 29.4261 24.9795C28.1785 24.9051 27.1863 25.784 26.4361 26.8025C24.8981 29.4628 25.1429 32.6672 24.9548 35.7832C24.8553 38.4667 24.6161 41.392 22.6828 43.3407C21.3464 43.6988 20.0101 44.0568 18.4828 44.4661C12.7555 46.0007 7.21906 47.4842 1.44066 48.8281C0.104282 49.1862 0.475403 51.3349 1.86287 51.1675C8.54474 49.3771 15.4686 47.7262 22.2903 45.694C22.5323 45.8335 22.9141 45.7312 23.2959 45.6289C23.4868 45.5777 23.7289 45.7172 23.6778 45.5266C28.3994 44.057 33.4922 44.7362 36.9959 47.8848C37.1492 48.4569 37.3025 49.0289 37.4558 49.601C33.7667 52.6332 31.1102 57.2281 31 62.1626C30.9759 63.5997 31.3335 64.9345 32.4037 65.874C33.4739 66.8135 35.0523 66.5949 36.3376 66.0461C38.857 64.7579 39.911 61.8187 40.2524 59.2747C40.2901 58.6515 40.4675 57.7864 40.5052 57.1632C41.8443 59.87 43.4254 62.7163 45.4771 65.0278C47.1846 66.8184 50.7125 68.53 52.6323 65.7675C53.5223 64.5071 52.8715 62.8421 52.323 61.5585C51.5324 60.1353 50.5509 58.7633 49.5694 57.3913C47.7087 55.0287 45.899 52.8567 43.7075 50.7871C45.7699 50.8476 47.7812 50.7174 49.7414 50.3965C51.7016 50.0757 54.5141 49.1177 53.6079 46.4993C52.9437 44.0204 49.6847 44.0761 47.7245 44.397C45.0007 44.9224 42.4812 46.2107 39.9618 47.4989C39.7709 47.55 39.7709 47.55 39.631 47.7919C37.5283 45.2897 34.6753 43.806 31.6449 43.1874C32.5995 42.9316 33.554 42.6759 34.4575 42.2294C34.6995 42.3689 34.8904 42.3178 35.2722 42.2155C36.0358 42.0109 36.7484 41.6155 37.4609 41.2202C41.6099 39.9042 45.7077 38.3974 49.7545 36.7C58.0793 35.6956 66.5843 36.891 74.2639 40.3514C74.315 40.5421 74.315 40.5421 74.366 40.7328C69.7224 44.0208 69.7414 50.9644 71.0698 55.9222C71.4275 57.2569 72.1669 58.4894 73.6566 58.7034C75.1463 58.9174 76.1384 58.0384 76.5955 56.6897C77.8915 53.8899 78.4104 50.4809 78.2167 47.4672C78.2032 46.6533 77.9989 45.8906 77.9854 45.0767C80.4835 48.2904 83.5032 51.16 86.9423 53.3041C88.2034 54.1925 89.7442 54.5971 91.2204 53.9972C92.5567 53.6391 93.1536 52.0486 92.9869 50.6626ZM90.3994 18.8605C91.0744 19.0884 92.8571 19.6325 92.4887 20.5487C92.2602 21.2231 90.8727 21.3905 90.3 21.544C88.7216 21.7625 87.2831 21.7392 85.8445 21.7159C84.1639 21.5531 82.4834 21.3903 80.9426 20.9857C81.4643 20.6415 81.8461 20.5392 82.3677 20.1951C83.653 19.6463 85.1292 19.0464 86.4656 18.6883C87.6621 18.572 89.1007 18.5953 90.3994 18.8605ZM83.5077 13.7584C85.1102 12.1027 87.3607 9.04723 89.9071 9.38679C88.3961 13.6748 84.7957 16.2745 81.0932 18.4928C80.5715 18.837 79.8079 19.0416 79.2862 19.3857C80.5957 17.3999 81.9562 15.6047 83.5077 13.7584ZM75.6103 8.7214C75.7877 7.85636 76.589 7.02854 77.4172 7.82849C78.0034 8.48892 78.119 9.68417 78.3745 10.6376C78.4901 11.8328 78.6058 13.0281 78.2885 14.135C78.0735 15.6232 77.6675 17.1626 77.0195 18.5625C76.5085 16.6557 76.0487 14.9395 75.7287 12.9815C75.5619 11.5956 75.3441 10.019 75.6103 8.7214ZM56.1885 14.1298C57.7158 13.7206 59.8292 13.9718 60.1493 15.9298C60.4693 17.8878 58.0251 17.9296 56.5865 17.9063C55.148 17.883 53.6583 17.669 52.1687 17.455C52.8301 16.8691 53.4405 16.0924 54.1019 15.5064C54.7123 14.7297 55.4248 14.3344 56.1885 14.1298ZM53.0745 5.563C53.8247 4.54449 54.9567 3.42368 56.2931 3.0656C57.8715 2.84705 58.6109 4.07952 58.1539 5.42824C57.9388 6.91649 56.8579 8.22799 55.9679 9.48833C54.9381 10.9905 53.6663 12.3532 52.2035 13.767C51.3512 14.4041 50.5499 15.2319 49.9906 16.1993C49.8508 16.4411 49.8508 16.4411 49.711 16.683C49.8615 14.1901 50.254 11.8369 51.0284 9.38125C51.4855 8.03253 52.1845 6.82334 53.0745 5.563ZM44.6154 12.939C44.2202 12.2274 43.8249 11.5158 43.4296 10.8042C43.3274 10.4229 42.7788 9.13922 43.1096 8.84623C43.771 8.26025 45.1882 12.7855 45.2904 13.1669C45.3925 13.5482 45.5458 14.1203 45.8389 14.4505C45.3038 13.9808 44.9596 13.4599 44.6154 12.939ZM27.9527 28.6443C28.0925 28.4025 28.512 27.6769 28.8938 27.5746C29.5176 27.6119 29.722 28.3746 29.8753 28.9466C30.284 30.4721 29.9291 32.2022 29.5232 33.7416C28.8886 35.9554 27.961 37.8389 26.7914 39.5829C26.8801 39.1504 27.0199 38.9086 26.9177 38.5272C27.0817 36.8483 27.0548 35.2205 27.2188 33.5416C27.1918 31.9138 27.3047 30.0442 27.9527 28.6443ZM36.9963 62.3953C36.5768 63.1208 35.0254 64.9671 33.8664 64.4602C32.7075 63.9532 33.2909 61.5488 33.4684 60.6837C33.7346 59.3862 34.1916 58.0374 34.8396 56.6376C35.6785 55.1865 36.7083 53.6843 37.8403 52.5635C38.1604 54.5215 38.2384 56.34 38.1766 58.4003C37.9104 59.6978 37.6953 61.1861 36.9963 62.3953ZM46.8967 58.1075C48.0691 59.4283 49.1016 60.991 49.8922 62.4142C50.2364 62.9351 50.9248 63.9769 50.5053 64.7024C50.0348 65.2372 49.169 65.0605 48.685 64.7814C47.284 64.1349 46.2515 62.5722 45.512 61.3397C44.5305 59.9677 43.6888 58.3539 42.8983 56.9307C41.9544 54.9355 40.9595 52.7496 40.2065 50.7033C42.4491 52.9636 44.9337 55.3635 46.8967 58.1075ZM51.2659 46.9224C51.7634 48.0154 47.7408 48.2757 47.3589 48.378C45.9715 48.5454 44.342 48.5733 42.9035 48.55C43.9978 48.0524 45.0922 47.5548 46.3775 47.006C47.332 46.7503 50.7173 45.6388 51.2659 46.9224ZM86.2025 37.5612C86.9796 38.1705 86.8909 38.603 85.9363 38.8588C85.1216 38.8727 84.116 38.9378 83.3012 38.9517C81.8627 38.9284 80.615 38.854 79.2275 39.0214C79.9401 38.6261 80.6526 38.2308 81.5561 37.7843C82.8414 37.2356 84.9925 36.8635 86.2025 37.5612ZM74.7106 55.7641C73.8341 57.8384 73.1053 54.3549 73.0918 53.541C72.874 51.9644 72.605 50.1971 72.769 48.5181C73.0217 46.4067 73.8983 44.3325 75.361 42.9187C76.4851 47.1137 76.3238 51.8575 74.7106 55.7641ZM89.9458 52.295C88.6094 52.6531 86.4179 50.5834 85.5897 49.7835C84.2775 48.7044 82.9142 47.4347 81.7418 46.1139C80.3274 44.6535 79.1039 43.142 78.0714 41.5793C80.72 42.3002 83.0889 43.5048 85.3691 45.142C86.6302 46.0303 87.9424 47.1093 88.9239 48.4813C89.459 48.951 91.8549 51.7834 89.9458 52.295Z" fill="#1A3867"/>
</svg>
