<svg width="94" height="63" viewBox="0 0 94 63" fill="none" xmlns="http://www.w3.org/2000/svg">
<path d="M79.4935 31.4048C77.4671 30.9714 75.5016 30.3939 73.4863 30.135C71.3989 29.8456 69.3947 29.7612 67.3295 29.8208C65.3364 29.9109 63.3545 30.1754 61.3198 30.163C59.3572 30.1811 57.4139 29.9527 55.4707 29.7243C51.368 29.176 47.2125 28.3506 43.3314 26.8773C41.2106 26.0644 39.1203 25.1795 37.091 24.1506C35.3195 23.3157 33.1905 22.9238 31.7765 21.646C31.0334 20.9918 29.9082 22.0436 30.6512 22.6977C31.9515 23.8425 33.5677 24.4418 35.184 25.0412C37.0164 25.732 38.727 26.7109 40.4569 27.4432C43.5147 28.6529 46.6334 29.7185 49.8325 30.3937C49.7604 30.3631 49.7299 30.4351 49.6578 30.4046C48.8983 30.5925 48.1804 30.8828 47.4625 31.1732C46.6116 31.577 45.7607 31.9808 44.9402 32.3126C44.1197 32.6445 43.1856 32.8433 42.3651 33.1751C40.6937 33.9108 39.344 35.292 38.1689 36.6622C37.5454 37.3321 36.9634 38.1045 36.556 38.8659C36.0877 39.7713 35.8052 40.8402 35.3369 41.7456C35.021 42.291 35.4564 43.0696 36.1854 42.9538C37.9095 42.4951 38.9404 41.0639 40.4372 40.3392C42.2416 39.49 44.3261 39.184 46.0058 38.0273C47.5524 36.9842 48.6442 35.4089 49.7056 33.9056C50.0216 33.3602 50.3375 32.8147 50.6534 32.2693C50.7143 32.1253 50.8778 31.9399 50.9998 31.6519C51.5125 31.4445 52.0253 31.2371 52.4244 30.8967C52.4244 30.8967 52.4244 30.8967 52.4965 30.9272C56.4662 31.589 60.5273 32.0349 64.5024 31.6802C66.5259 31.5181 68.6216 31.3865 70.6978 31.5015C70.7699 31.532 70.8725 31.4905 70.9446 31.521C69.786 32.0493 68.4832 32.5165 67.3551 32.9728C65.4065 33.7609 63.5522 34.9285 62.5546 36.8832C62.3718 37.3152 62.4467 37.9412 62.9818 38.0828C64.9361 38.4857 66.4271 36.5701 67.8712 35.5684C68.8745 34.8046 70.0331 34.2763 71.1612 33.82C71.7766 33.5712 72.2894 33.3638 72.791 32.9819C73.2622 32.672 73.6918 32.2596 74.1741 32.1242C74.2462 32.1547 74.2767 32.0827 74.2767 32.0827C75.233 32.2329 76.231 32.4856 77.1569 32.7078C79.5438 33.2938 81.95 33.6333 84.4283 34.0033C86.9786 34.4038 89.5096 35.0508 92.0295 35.5233C92.9859 35.6735 93.5234 34.2032 92.4949 34.0224C90.3659 33.6305 88.1953 33.1361 85.9942 32.7136C83.8846 32.0752 81.6641 31.8992 79.4935 31.4048ZM45.8418 36.0053C44.287 37.4695 42.172 37.8475 40.2234 38.6356C39.403 38.9675 38.7267 39.3603 38.0615 39.9277C37.898 40.1131 37.6928 40.1961 37.5293 40.3816C37.5903 40.2376 37.6512 40.0936 37.7122 39.9496C38.1084 39.0137 38.7625 38.2718 39.4165 37.53C40.5916 36.1597 42.055 34.9115 43.768 34.2784C44.558 34.0186 45.3175 33.8307 45.9938 33.4379C46.8447 33.034 47.6957 32.6302 48.6187 32.2569C47.865 33.6357 46.9671 34.9535 45.8418 36.0053Z" fill="#40562F"/>
<path d="M23.7917 27.8588C23.8943 27.8173 23.9968 27.7758 24.0578 27.6318C24.1603 27.5903 24.2213 27.4464 24.2518 27.3744L24.2823 27.3024C24.3127 27.2304 24.3432 27.1584 24.3737 27.0864C24.3737 27.0864 24.3737 27.0864 24.4042 27.0144C24.4347 26.9424 24.4956 26.7984 24.454 26.6959C24.4845 26.6239 24.4429 26.5214 24.4429 26.5214C24.4013 26.4189 24.3597 26.3164 24.3597 26.3164L24.3181 26.2139L24.2765 26.1114C24.2044 26.0809 24.2044 26.0809 24.1628 25.9784C24.0907 25.9478 24.0907 25.9478 24.0491 25.8453C23.8329 25.7538 23.6167 25.6622 23.3699 25.6427C23.2979 25.6122 23.1953 25.6537 23.0927 25.6951C22.9902 25.7366 22.8876 25.7781 22.8572 25.8501C22.7546 25.8916 22.7241 25.9636 22.6632 26.1075C22.6327 26.1795 22.5717 26.3235 22.6133 26.426C22.5828 26.498 22.6244 26.6005 22.6244 26.6005C22.666 26.703 22.7076 26.8056 22.7797 26.8361C22.7492 26.9081 22.6883 27.052 22.7299 27.1546C22.7715 27.2571 22.741 27.3291 22.7826 27.4316C22.8547 27.4621 22.8242 27.5341 22.8963 27.5646C23.01 27.6976 23.082 27.7281 23.2262 27.7892C23.2983 27.8197 23.3704 27.8502 23.4729 27.8087C23.5866 27.9417 23.6892 27.9003 23.7917 27.8588ZM23.1068 26.4651C23.1068 26.4651 23.0763 26.5371 23.0042 26.5066C23.0042 26.5066 23.0042 26.5066 23.1068 26.4651C23.0763 26.5371 23.0763 26.5371 23.1068 26.4651Z" fill="#40562F"/>
<path d="M23.098 24.6787C23.4222 23.7123 21.9196 23.2459 21.5955 24.2124C21.3739 25.1373 22.8765 25.6036 23.098 24.6787Z" fill="#40562F"/>
<path d="M18.8653 24.8393C18.5411 25.8057 20.0437 26.272 20.3678 25.3056C20.692 24.3392 19.1894 23.8729 18.8653 24.8393Z" fill="#40562F"/>
<path d="M20.2349 27.6266C19.9108 28.593 21.4133 29.0593 21.7375 28.0929C22.0616 27.1265 20.5591 26.6601 20.2349 27.6266Z" fill="#40562F"/>
<path d="M16.812 29.4884C16.8425 29.4164 16.9146 29.4469 16.945 29.3749C17.0781 29.2614 17.1086 29.1894 17.1695 29.0454L17.2 28.9734C17.2305 28.9014 17.2914 28.7575 17.2498 28.6549C17.2082 28.5524 17.2387 28.4804 17.1971 28.3779C17.1555 28.2754 17.0834 28.2449 17.0418 28.1424C17.0002 28.0399 16.8561 27.9789 16.7535 28.0203C16.6814 27.9898 16.6094 27.9593 16.5068 28.0008C16.3322 28.0118 16.2296 28.0532 16.127 28.0947C16.0966 28.1667 16.0245 28.1362 15.994 28.2082C15.861 28.3217 15.8305 28.3937 15.7695 28.5376L15.7391 28.6096C15.7086 28.6816 15.6476 28.8256 15.6892 28.9281C15.7308 29.0306 15.7003 29.1026 15.7419 29.2051C15.7835 29.3076 15.8556 29.3382 15.8972 29.4407C15.9388 29.5432 16.083 29.6042 16.1855 29.5627C16.2576 29.5932 16.3297 29.6238 16.4323 29.5823C16.5764 29.6433 16.679 29.6018 16.812 29.4884Z" fill="#40562F"/>
<path d="M15.1621 26.158C15.2342 26.1886 15.3368 26.1471 15.4393 26.1056C15.4393 26.1056 15.5114 26.1361 15.5419 26.0641C15.6444 26.0226 15.747 25.9812 15.8495 25.9397C15.9521 25.8982 15.9826 25.8262 16.0435 25.6822C16.074 25.6102 16.135 25.4662 16.1655 25.3942C16.1959 25.3223 16.1848 25.1478 16.1432 25.0452C16.1016 24.9427 16.1016 24.9427 16.06 24.8402C16.0184 24.7377 15.9047 24.6047 15.7606 24.5437C15.6885 24.5132 15.6164 24.4826 15.5443 24.4521C15.4723 24.4216 15.2976 24.4326 15.2255 24.4021C15.1535 24.3715 15.1119 24.269 15.1119 24.269C15.0398 24.2385 14.8956 24.1775 14.7931 24.219C14.721 24.1885 14.6184 24.2299 14.5159 24.2714C14.4133 24.3129 14.3108 24.3544 14.2803 24.4264C14.2498 24.4984 14.1472 24.5398 14.1472 24.5398C14.0863 24.6838 14.0253 24.8278 14.0669 24.9303C14.0365 25.0023 14.0781 25.1048 14.0781 25.1048C14.1197 25.2073 14.1613 25.3098 14.2749 25.4429L14.347 25.4734C14.4191 25.5039 14.4607 25.6064 14.5328 25.6369C14.6049 25.6674 14.6769 25.6979 14.6769 25.6979C14.749 25.7285 14.8211 25.759 14.8211 25.759L14.8932 25.7895C14.9875 26.169 15.0596 26.1995 15.1621 26.158Z" fill="#40562F"/>
<path d="M16.9547 22.9269C16.9131 22.8244 16.8411 22.7939 16.6969 22.7328C16.6248 22.7023 16.4807 22.6413 16.3781 22.6828C16.306 22.6523 16.2035 22.6937 16.2035 22.6937C16.1009 22.7352 15.9984 22.7767 15.8653 22.8902C15.8348 22.9622 15.7323 23.0036 15.7323 23.0036C15.6713 23.1476 15.6104 23.2916 15.652 23.3941C15.6936 23.4966 15.6326 23.6406 15.6742 23.7431C15.7158 23.8456 15.7574 23.9481 15.799 24.0507L15.8406 24.1532C15.8822 24.2557 15.9543 24.2862 15.9959 24.3887C16.068 24.4192 16.1096 24.5217 16.2537 24.5827C16.3258 24.6133 16.47 24.6743 16.5421 24.7048C16.6141 24.7353 16.7888 24.7244 16.8608 24.7549L16.9329 24.7854C17.0355 24.7439 17.1076 24.7744 17.2101 24.7329C17.3127 24.6915 17.4152 24.65 17.5178 24.6085C17.6204 24.567 17.6508 24.495 17.7118 24.351C17.7423 24.2791 17.8032 24.1351 17.8337 24.0631C17.8642 23.9911 17.8531 23.8166 17.8115 23.7141C17.7699 23.6116 17.7699 23.6116 17.7283 23.5091C17.6867 23.4065 17.573 23.2735 17.4288 23.2125C17.3567 23.182 17.2847 23.1515 17.2126 23.121L17.1405 23.0904C17.0684 23.0599 17.0268 22.9574 16.9547 22.9269Z" fill="#40562F"/>
<path d="M12.8 26.5165C13.1241 25.5501 11.6216 25.0838 11.2974 26.0502C10.9733 27.0166 12.4758 27.483 12.8 26.5165Z" fill="#40562F"/>
<path d="M11.4683 21.0288C11.1442 21.9952 12.6467 22.4615 12.9709 21.4951C13.295 20.5287 11.7925 20.0623 11.4683 21.0288Z" fill="#40562F"/>
<path d="M10.7594 23.1056C11.0836 22.1392 9.58103 21.6729 9.25689 22.6393C9.00483 23.6363 10.5074 24.1026 10.7594 23.1056Z" fill="#40562F"/>
<path d="M7.92623 21.5666C8.02879 21.5251 8.13135 21.4836 8.26438 21.3701C8.45838 21.1127 8.72445 20.8857 8.94892 20.5563C8.9794 20.4843 9.04035 20.3403 9.07083 20.2683C9.10131 20.1963 9.09019 20.0218 9.04859 19.9193C9.00699 19.8168 8.96539 19.7143 8.92379 19.6118C8.88219 19.5093 8.81011 19.4788 8.66595 19.4177C8.59387 19.3872 8.52179 19.3567 8.44971 19.3262C8.30555 19.2652 8.20299 19.3066 8.02836 19.3176C7.9258 19.3591 7.9258 19.3591 7.82324 19.4006C7.72069 19.442 7.58765 19.5555 7.52669 19.6995C7.36318 19.885 7.19967 20.0704 7.00567 20.3279C7.03615 20.2559 7.03615 20.2559 7.13871 20.2144C7.13871 20.2144 7.07775 20.3584 7.04727 20.4304C7.01679 20.5024 6.95584 20.6464 6.99744 20.7489C6.96696 20.8209 7.00856 20.9234 7.05016 21.0259C7.09176 21.1284 7.13336 21.2309 7.20544 21.2614C7.27752 21.2919 7.31912 21.3944 7.31912 21.3944C7.46328 21.4555 7.60744 21.5165 7.71 21.475C7.78207 21.5055 7.85415 21.5361 7.92623 21.5666Z" fill="#40562F"/>
<path d="M9.17789 17.0028C9.50203 16.0364 7.99949 15.5701 7.67535 16.5365C7.35121 17.5029 8.85375 17.9692 9.17789 17.0028Z" fill="#40562F"/>
<path d="M12.0419 18.4699C12.1445 18.4284 12.247 18.387 12.2775 18.315C12.2775 18.315 12.308 18.243 12.3801 18.2735C12.4105 18.2015 12.5131 18.16 12.5436 18.088C12.5436 18.088 12.5436 18.088 12.5741 18.016C12.5741 18.016 12.5741 18.016 12.6045 17.944C12.635 17.872 12.6655 17.8 12.696 17.728C12.7265 17.6561 12.7874 17.5121 12.7458 17.4096C12.7042 17.307 12.7347 17.2351 12.6931 17.1325C12.6515 17.03 12.5794 16.9995 12.5378 16.897C12.4962 16.7945 12.3521 16.7335 12.2495 16.775C12.1774 16.7444 12.1053 16.7139 12.0028 16.7554C11.8281 16.7664 11.7256 16.8079 11.623 16.8493C11.5925 16.9213 11.5205 16.8908 11.49 16.9628C11.4595 17.0348 11.357 17.0763 11.3265 17.1483C11.296 17.2203 11.2239 17.1897 11.1934 17.2617C11.0909 17.3032 11.0299 17.4472 11.0715 17.5497C11.0411 17.6217 10.9801 17.7657 11.0217 17.8682C11.0633 17.9707 11.0328 18.0427 11.0744 18.1452C11.1465 18.1757 11.116 18.2477 11.1881 18.2782C11.3018 18.4113 11.3739 18.4418 11.518 18.5028C11.5901 18.5333 11.6622 18.5638 11.7647 18.5224C11.8063 18.6249 11.9089 18.5834 12.0419 18.4699Z" fill="#40562F"/>
<path d="M9.71255 14.9369C10.0367 13.9705 8.53416 13.5042 8.21002 14.4706C7.95796 15.4676 9.38841 15.9034 9.71255 14.9369Z" fill="#40562F"/>
<path d="M12.3317 12.565C12.6558 11.5986 11.1533 11.1322 10.8292 12.0987C10.505 13.0651 12.0076 13.5314 12.3317 12.565Z" fill="#40562F"/>
<path d="M13.1593 7.39716C13.4835 6.43074 11.9809 5.96443 11.6568 6.93085C11.4047 7.9278 12.9073 8.39411 13.1593 7.39716Z" fill="#40562F"/>
<path d="M15.9396 6.45178C16.2637 5.48536 14.7612 5.01905 14.4371 5.98547C14.185 6.98242 15.6875 7.44873 15.9396 6.45178Z" fill="#40562F"/>
<path d="M20.1644 6.71217C20.4886 5.74574 18.9861 5.27943 18.6619 6.24586C18.3683 7.1403 19.8708 7.6066 20.1644 6.71217Z" fill="#40562F"/>
<path d="M23.1749 6.62827C22.8507 7.5947 24.3533 8.061 24.6774 7.09458C24.9711 6.20014 23.4685 5.73383 23.1749 6.62827Z" fill="#40562F"/>
<path d="M26.8102 12.497C27.1344 11.5306 25.6318 11.0642 25.3077 12.0307C25.0556 13.0276 26.5581 13.4939 26.8102 12.497Z" fill="#40562F"/>
<path d="M27.772 11.6307C27.4479 12.5971 28.9504 13.0634 29.2746 12.097C29.5987 11.1306 28.0962 10.6643 27.772 11.6307Z" fill="#40562F"/>
<path d="M26.1936 8.33085C25.8695 9.29728 27.372 9.76358 27.6961 8.79715C27.9482 7.80021 26.4457 7.3339 26.1936 8.33085Z" fill="#40562F"/>
<path d="M25.5924 9.34972C25.9166 8.38329 24.414 7.91699 24.0899 8.88342C23.7658 9.84984 25.2683 10.3162 25.5924 9.34972Z" fill="#40562F"/>
<path d="M22.0358 9.11751C22.3599 8.15108 20.8574 7.68477 20.5333 8.6512C20.2091 9.61763 21.7117 10.0839 22.0358 9.11751Z" fill="#40562F"/>
<path d="M21.0547 10.2303C20.7306 11.1967 22.2331 11.663 22.5573 10.6966C22.8814 9.73016 21.3789 9.26385 21.0547 10.2303Z" fill="#40562F"/>
<path d="M23.9218 12.2929C24.2459 11.3264 22.7434 10.8601 22.4192 11.8266C22.1256 12.721 23.6281 13.1873 23.9218 12.2929Z" fill="#40562F"/>
<path d="M24.4709 15.412C24.7951 14.4456 23.2925 13.9792 22.9684 14.9457C22.7468 15.8706 24.1468 16.3784 24.4709 15.412Z" fill="#40562F"/>
<path d="M25.2693 14.7312C24.9451 15.6976 26.4477 16.1639 26.7718 15.1975C26.9934 14.2725 25.4909 13.8062 25.2693 14.7312Z" fill="#40562F"/>
<path d="M27.7419 13.9102C27.4177 14.8766 28.9203 15.3429 29.2444 14.3765C29.4965 13.3795 28.066 12.9437 27.7419 13.9102Z" fill="#40562F"/>
<path d="M29.8428 12.7621C29.5187 13.7285 31.0212 14.1948 31.3454 13.2284C31.6695 12.262 30.167 11.7957 29.8428 12.7621Z" fill="#40562F"/>
<path d="M32.1608 16.1206C32.4849 15.1541 30.9824 14.6878 30.6583 15.6542C30.3341 16.6207 31.8367 17.087 32.1608 16.1206Z" fill="#40562F"/>
<path d="M31.5544 18.156C31.8785 17.1895 30.376 16.7232 30.0518 17.6896C29.7998 18.6866 31.3023 19.1529 31.5544 18.156Z" fill="#40562F"/>
<path d="M29.5614 20.4535C29.8856 19.4871 28.383 19.0208 28.0589 19.9872C27.8373 20.9122 29.2678 21.348 29.5614 20.4535Z" fill="#40562F"/>
<path d="M27.9517 23.2527C27.6276 24.2191 29.1301 24.6854 29.4543 23.719C29.7479 22.8246 28.2454 22.3582 27.9517 23.2527Z" fill="#40562F"/>
<path d="M27.6217 25.2356C27.9459 24.2691 26.4433 23.8028 26.1192 24.7693C25.7951 25.7357 27.2976 26.202 27.6217 25.2356Z" fill="#40562F"/>
<path d="M23.9791 21.9954C23.6549 22.9618 25.1575 23.4281 25.4816 22.4617C25.8057 21.4953 24.3032 21.0289 23.9791 21.9954Z" fill="#40562F"/>
<path d="M27.6512 18.5411C27.5791 18.5106 27.6096 18.4386 27.5375 18.4081C27.4238 18.2751 27.3517 18.2446 27.2076 18.1835C27.1355 18.153 27.0634 18.1225 26.9913 18.092C26.9193 18.0615 26.7751 18.0005 26.6725 18.0419C26.57 18.0834 26.4979 18.0529 26.3953 18.0944C26.2928 18.1359 26.2623 18.2078 26.1598 18.2493C26.0572 18.2908 25.9962 18.4348 26.0378 18.5373C26.0074 18.6093 25.9769 18.6813 26.0185 18.7838C26.0296 18.9583 26.0712 19.0608 26.1128 19.1633C26.1849 19.1938 26.1544 19.2658 26.2265 19.2963C26.3402 19.4294 26.4122 19.4599 26.5564 19.5209C26.6285 19.5514 26.7006 19.5819 26.7726 19.6124C26.8447 19.643 26.9889 19.704 27.0914 19.6625C27.194 19.621 27.2661 19.6515 27.3686 19.6101C27.4712 19.5686 27.5017 19.4966 27.6042 19.4551C27.7068 19.4136 27.7677 19.2696 27.7261 19.1671C27.7566 19.0951 27.7871 19.0232 27.7455 18.9206C27.8064 18.7767 27.7648 18.6742 27.6512 18.5411Z" fill="#40562F"/>
<path d="M28.0222 16.6607C27.6981 17.6271 29.2006 18.0934 29.5247 17.127C29.7768 16.1301 28.2743 15.6638 28.0222 16.6607Z" fill="#40562F"/>
<path d="M23.8946 17.3753C23.5704 18.3418 25.073 18.8081 25.3971 17.8417C25.7213 16.8752 24.2187 16.4089 23.8946 17.3753Z" fill="#40562F"/>
<path d="M24.7382 19.6C25.0623 18.6336 23.5598 18.1673 23.2356 19.1337C22.942 20.0281 24.4445 20.4945 24.7382 19.6Z" fill="#40562F"/>
<path d="M20.8184 20.8272C20.4943 21.7937 21.9968 22.26 22.321 21.2935C22.6451 20.3271 21.1426 19.8608 20.8184 20.8272Z" fill="#40562F"/>
<path d="M19.3359 22.3219C19.347 22.4964 19.3886 22.5989 19.4302 22.7014C19.5023 22.7319 19.4718 22.8039 19.5439 22.8344C19.6575 22.9674 19.7296 22.9979 19.8738 23.059L19.9459 23.0895C20.0179 23.12 20.1621 23.181 20.2647 23.1395C20.3672 23.0981 20.4393 23.1286 20.5418 23.0871C20.6444 23.0456 20.6749 22.9736 20.7774 22.9322C20.88 22.8907 20.941 22.7467 20.8994 22.6442C20.9298 22.5722 20.9603 22.5002 20.9187 22.3977C20.9076 22.2232 20.866 22.1207 20.8244 22.0182C20.7523 21.9877 20.7828 21.9157 20.7107 21.8851C20.597 21.7521 20.525 21.7216 20.3808 21.6606L20.3087 21.6301C20.2366 21.5996 20.0925 21.5385 19.9899 21.58C19.8874 21.6215 19.8153 21.591 19.7127 21.6324C19.6102 21.6739 19.5797 21.7459 19.4771 21.7874C19.3746 21.8289 19.3136 21.9729 19.3552 22.0754C19.3968 22.1779 19.3663 22.2499 19.3359 22.3219Z" fill="#40562F"/>
<path d="M19.0695 20.3414C19.3936 19.3749 17.8911 18.9086 17.567 19.8751C17.3149 20.872 18.8174 21.3383 19.0695 20.3414Z" fill="#40562F"/>
<path d="M21.4551 16.5123C21.131 17.4788 22.6335 17.9451 22.9577 16.9786C23.2818 16.0122 21.7793 15.5459 21.4551 16.5123Z" fill="#40562F"/>
<path d="M18.5202 17.2223C18.8443 16.2559 17.3418 15.7895 17.0176 16.756C16.7656 17.7529 18.2681 18.2192 18.5202 17.2223Z" fill="#40562F"/>
<path d="M16.0118 19.1317C15.6876 20.0982 17.1902 20.5645 17.5143 19.5981C17.808 18.7036 16.3054 18.2373 16.0118 19.1317Z" fill="#40562F"/>
<path d="M15.757 21.7406C16.0811 20.7742 14.5786 20.3079 14.2545 21.2743C14.0024 22.2713 15.5049 22.7376 15.757 21.7406Z" fill="#40562F"/>
<path d="M13.6604 17.4572C13.3363 18.4237 14.8388 18.89 15.1629 17.9235C15.415 16.9266 13.9125 16.4603 13.6604 17.4572Z" fill="#40562F"/>
<path d="M14.9931 14.7105C15.3172 13.7441 13.8147 13.2778 13.4905 14.2442C13.1969 15.1386 14.6994 15.6049 14.9931 14.7105Z" fill="#40562F"/>
<path d="M15.0729 12.1125C15.397 11.1461 13.8945 10.6798 13.5704 11.6462C13.3183 12.6432 14.8208 13.1095 15.0729 12.1125Z" fill="#40562F"/>
<path d="M12.434 10.316C12.7581 9.3496 11.2556 8.8833 10.9314 9.84973C10.6378 10.7442 12.1403 11.2105 12.434 10.316Z" fill="#40562F"/>
<path d="M9.81152 9.88496C9.842 9.81297 9.91408 9.84348 9.94456 9.77149C10.0776 9.65802 10.1081 9.58603 10.169 9.44204L10.1995 9.37005C10.23 9.29805 10.2909 9.15407 10.2493 9.05156C10.2077 8.94905 10.2382 8.87706 10.1966 8.77455C10.155 8.67204 10.0829 8.64153 10.0413 8.53902C9.99974 8.43651 9.85558 8.37548 9.75302 8.41696C9.68094 8.38644 9.60886 8.35593 9.50631 8.39741C9.33167 8.40837 9.22911 8.44985 9.12655 8.49133C9.09608 8.56332 9.024 8.53281 8.99352 8.6048C8.86048 8.71828 8.83001 8.79027 8.76905 8.93426L8.73857 9.00625C8.70809 9.07824 8.64713 9.22223 8.68874 9.32474C8.73034 9.42725 8.69986 9.49924 8.74146 9.60175C8.78306 9.70425 8.85514 9.73477 8.89674 9.83728C8.93834 9.93979 9.0825 10.0008 9.18506 9.95934C9.25713 9.98985 9.32921 10.0204 9.43177 9.97888C9.6064 9.96792 9.70896 9.92644 9.81152 9.88496Z" fill="#40562F"/>
<path d="M9.09097 11.7874C9.41511 10.8209 7.91258 10.3546 7.58844 11.321C7.26429 12.2875 8.76683 12.7538 9.09097 11.7874Z" fill="#40562F"/>
<path d="M7.67812 14.9245C8.00226 13.9581 6.49972 13.4918 6.17558 14.4582C5.954 15.3832 7.45654 15.8495 7.67812 14.9245Z" fill="#40562F"/>
<path d="M18.6046 11.4003C18.9288 10.4339 17.4262 9.96757 17.1021 10.934C16.778 11.9004 18.2805 12.3667 18.6046 11.4003Z" fill="#40562F"/>
<path d="M19.7003 14.8355C20.0245 13.8691 18.522 13.4027 18.1978 14.3692C17.8737 15.3356 19.3762 15.8019 19.7003 14.8355Z" fill="#40562F"/>
<path d="M20.2327 14.3816C19.9085 15.348 21.4111 15.8144 21.7352 14.8479C21.9873 13.851 20.4847 13.3847 20.2327 14.3816Z" fill="#40562F"/>
<path d="M19.3702 12.4035C19.046 13.3699 20.5486 13.8362 20.8727 12.8698C21.1664 11.9753 19.6638 11.509 19.3702 12.4035Z" fill="#40562F"/>
<path d="M16.0435 13.0327C15.7194 13.9992 17.2219 14.4655 17.5461 13.4991C17.8702 12.5326 16.3677 12.0663 16.0435 13.0327Z" fill="#40562F"/>
<path d="M17.1237 9.07548C17.4478 8.10905 15.9453 7.64274 15.6212 8.60917C15.3691 9.60612 16.8716 10.0724 17.1237 9.07548Z" fill="#40562F"/>
<path d="M18.0552 8.2812C17.7311 9.24762 19.2336 9.71393 19.5578 8.7475C19.8819 7.78108 18.3794 7.31477 18.0552 8.2812Z" fill="#40562F"/>
<path d="M26.9429 10.176C26.6188 11.1424 28.1213 11.6088 28.4455 10.6423C28.7696 9.6759 27.2671 9.20959 26.9429 10.176Z" fill="#40562F"/>
<path d="M29.0049 9.52093C28.6808 10.4874 30.1833 10.9537 30.5075 9.98724C30.8316 9.02081 29.3291 8.55451 29.0049 9.52093Z" fill="#40562F"/>
</svg>
