<svg width="21" height="19" viewBox="0 0 21 19" fill="none" xmlns="http://www.w3.org/2000/svg">
<path d="M21 8.82143C21 13.6944 16.2999 17.6429 10.5006 17.6429C8.97902 17.6429 7.53535 17.3714 6.23113 16.8837C5.74307 17.2527 4.94741 17.7574 4.00411 18.1815C3.01979 18.6225 1.83451 19 0.657428 19C0.390842 19 0.152965 18.8346 0.0504322 18.5801C-0.052101 18.3257 0.00531757 18.0373 0.189877 17.8422L0.202181 17.8295C0.214485 17.8167 0.23089 17.7998 0.255498 17.7701C0.300613 17.7192 0.370336 17.6386 0.456463 17.5283C0.624618 17.3163 0.85019 17.0025 1.07986 16.6123C1.49 15.9083 1.87962 14.9837 1.95755 13.9446C0.727151 12.5027 0.00121625 10.7342 0.00121625 8.82143C0.00121625 3.94844 4.70134 0 10.5006 0C16.2999 0 21 3.94844 21 8.82143Z" fill="white"/>
</svg>
