<svg width="13" height="16" viewBox="0 0 13 16" fill="none" xmlns="http://www.w3.org/2000/svg">
<path d="M4.86637 10.7374V10.5109C4.87082 9.7339 4.93987 9.11449 5.0735 8.65271C5.21158 8.19093 5.41203 7.81795 5.67483 7.53378C5.93764 7.2496 6.2539 6.99207 6.62361 6.76118C6.89978 6.58357 7.14699 6.3993 7.36526 6.20837C7.58352 6.01744 7.75724 5.80653 7.88641 5.57564C8.01559 5.34031 8.08018 5.07834 8.08018 4.78972C8.08018 4.48335 8.00668 4.21472 7.85969 3.98383C7.71269 3.75293 7.51448 3.57533 7.26503 3.451C7.02004 3.32667 6.74833 3.26451 6.44989 3.26451C6.16036 3.26451 5.88641 3.32889 5.62806 3.45766C5.36971 3.58199 5.15813 3.76848 4.99332 4.01713C4.82851 4.26134 4.73942 4.56549 4.72606 4.92959H2C2.02227 4.04155 2.23608 3.30891 2.64143 2.73168C3.04677 2.15002 3.58352 1.7171 4.25167 1.43292C4.91982 1.14431 5.65702 1 6.46325 1C7.34967 1 8.13363 1.14653 8.81514 1.43958C9.49666 1.7282 10.0312 2.1478 10.4187 2.69838C10.8062 3.24897 11 3.91278 11 4.68982C11 5.20932 10.9131 5.67111 10.7394 6.07517C10.5702 6.47479 10.3318 6.83 10.0245 7.14082C9.71715 7.44719 9.35412 7.72471 8.93541 7.97336C8.58352 8.18205 8.29399 8.39962 8.06681 8.62607C7.8441 8.85252 7.67706 9.11449 7.5657 9.41199C7.4588 9.70948 7.40312 10.0758 7.39866 10.5109V10.7374H4.86637ZM6.18931 15C5.74388 15 5.36303 14.8446 5.04677 14.5338C4.73497 14.2185 4.58129 13.8411 4.58575 13.4015C4.58129 12.9664 4.73497 12.5934 5.04677 12.2826C5.36303 11.9718 5.74388 11.8164 6.18931 11.8164C6.61247 11.8164 6.98441 11.9718 7.30512 12.2826C7.62584 12.5934 7.78842 12.9664 7.79287 13.4015C7.78842 13.6946 7.71047 13.9632 7.55902 14.2074C7.41203 14.4472 7.21826 14.6403 6.97773 14.7869C6.73719 14.929 6.47439 15 6.18931 15Z" fill="#7894F7"/>
</svg>
