<svg width="21" height="20" viewBox="0 0 21 20" fill="none" xmlns="http://www.w3.org/2000/svg">
<path d="M11.6592 0.703125C11.4467 0.273438 10.9975 0 10.5042 0C10.0109 0 9.56577 0.273438 9.34921 0.703125L6.77051 5.87109L1.01155 6.69922C0.530304 6.76953 0.129262 7.09766 -0.019123 7.54687C-0.167508 7.99609 -0.0471961 8.49219 0.2977 8.82422L4.47655 12.8516L3.48999 18.543C3.40978 19.0117 3.6103 19.4883 4.00734 19.7656C4.40437 20.043 4.92973 20.0781 5.36286 19.8555L10.5082 17.1797L15.6536 19.8555C16.0867 20.0781 16.6121 20.0469 17.0091 19.7656C17.4061 19.4844 17.6067 19.0117 17.5264 18.543L16.5359 12.8516L20.7147 8.82422C21.0596 8.49219 21.1839 7.99609 21.0316 7.54687C20.8792 7.09766 20.4821 6.76953 20.0009 6.69922L14.2379 5.87109L11.6592 0.703125Z" fill="white"/>
</svg>
