<svg width="20" height="21" viewBox="0 0 20 21" fill="none" xmlns="http://www.w3.org/2000/svg">
<path d="M12.0008 1.3125C12.0008 0.586523 11.4051 0 10.6677 0C9.93023 0 9.33446 0.586523 9.33446 1.3125V9.84375C9.33446 10.2047 9.03449 10.5 8.66786 10.5C8.30124 10.5 8.00127 10.2047 8.00127 9.84375V2.625C8.00127 1.89902 7.4055 1.3125 6.66807 1.3125C5.93065 1.3125 5.33488 1.89902 5.33488 2.625V13.7812C5.33488 13.8428 5.33488 13.9084 5.33905 13.9699L2.81848 11.6074C2.15189 10.984 1.09783 11.0086 0.460397 11.6648C-0.177035 12.3211 -0.147872 13.3588 0.518725 13.9863L5.20156 18.375C6.99721 20.0607 9.38445 21 11.8675 21H12.6674C16.717 21 20 17.768 20 13.7812V5.25C20 4.52402 19.4042 3.9375 18.6668 3.9375C17.9294 3.9375 17.3336 4.52402 17.3336 5.25V9.84375C17.3336 10.2047 17.0336 10.5 16.667 10.5C16.3004 10.5 16.0004 10.2047 16.0004 9.84375V2.625C16.0004 1.89902 15.4047 1.3125 14.6672 1.3125C13.9298 1.3125 13.334 1.89902 13.334 2.625V9.84375C13.334 10.2047 13.0341 10.5 12.6674 10.5C12.3008 10.5 12.0008 10.2047 12.0008 9.84375V1.3125Z" fill="white"/>
</svg>
