<svg width="72" height="25" viewBox="0 0 72 25" fill="none" xmlns="http://www.w3.org/2000/svg">
<path d="M3.69747 3.63636V24H0.00854492V3.63636H3.69747Z" fill="black"/>
<path d="M11.1325 15.0511V24H7.53305V8.72727H10.9734V11.3224H11.1524C11.5037 10.4673 12.0638 9.78788 12.8328 9.28409C13.6083 8.7803 14.5662 8.52841 15.7063 8.52841C16.7603 8.52841 17.6784 8.75378 18.4606 9.20454C19.2494 9.6553 19.8593 10.3082 20.2902 11.1633C20.7277 12.0185 20.9431 13.0559 20.9365 14.2756V24H17.337V14.8324C17.337 13.8115 17.0719 13.0128 16.5416 12.4361C16.0179 11.8594 15.292 11.571 14.364 11.571C13.7343 11.571 13.1741 11.7102 12.6836 11.9886C12.1997 12.2604 11.8186 12.6548 11.5401 13.1719C11.2684 13.6889 11.1325 14.3153 11.1325 15.0511Z" fill="black"/>
<path d="M37.6907 8.72727L32.2518 24H28.2745L22.8356 8.72727H26.6737L30.1836 20.0724H30.3427L33.8626 8.72727H37.6907Z" fill="black"/>
<path d="M40.1815 24V8.72727H43.7809V24H40.1815Z" fill="black"/>
<path d="M55.1087 8.72727V11.5114H46.3289V8.72727H55.1087ZM48.4965 5.06818H52.0959V19.4062C52.0959 19.8901 52.1688 20.2614 52.3147 20.5199C52.4671 20.7718 52.666 20.9441 52.9112 21.0369C53.1565 21.1297 53.4283 21.1761 53.7266 21.1761C53.952 21.1761 54.1575 21.1596 54.3431 21.1264C54.5353 21.0933 54.6811 21.0634 54.7806 21.0369L55.3871 23.8508C55.1949 23.9171 54.9198 23.9901 54.5618 24.0696C54.2105 24.1491 53.7796 24.1955 53.2692 24.2088C52.3677 24.2353 51.5557 24.0994 50.8331 23.8011C50.1106 23.4962 49.5372 23.0256 49.1129 22.3892C48.6953 21.7528 48.4898 20.9574 48.4965 20.0028V5.06818Z" fill="black"/>
<path d="M64.7163 24.2983C63.185 24.2983 61.8626 23.9801 60.749 23.3437C59.642 22.7008 58.7902 21.7926 58.1936 20.6193C57.597 19.4394 57.2987 18.0507 57.2987 16.4531C57.2987 14.8821 57.597 13.5033 58.1936 12.3168C58.7968 11.1236 59.6386 10.1955 60.7191 9.53267C61.7996 8.86316 63.069 8.52841 64.5274 8.52841C65.4687 8.52841 66.3569 8.68087 67.1921 8.98579C68.034 9.28409 68.7764 9.7481 69.4194 10.3778C70.069 11.0076 70.5794 11.8097 70.9507 12.7841C71.3219 13.7519 71.5075 14.9053 71.5075 16.2443V17.348H58.989V14.9219H68.0572C68.0506 14.2325 67.9014 13.6193 67.6098 13.0824C67.3181 12.5388 66.9104 12.1113 66.3867 11.7997C65.8697 11.4882 65.2665 11.3324 64.5771 11.3324C63.8413 11.3324 63.195 11.5114 62.6382 11.8693C62.0813 12.2206 61.6472 12.6847 61.3356 13.2614C61.0307 13.8314 60.8749 14.4579 60.8683 15.1406V17.2585C60.8683 18.1468 61.0307 18.9091 61.3555 19.5455C61.6803 20.1752 62.1344 20.6591 62.7177 20.9972C63.301 21.3286 63.9838 21.4943 64.766 21.4943C65.2897 21.4943 65.7636 21.4214 66.1879 21.2756C66.6121 21.1231 66.98 20.901 67.2916 20.6094C67.6031 20.3177 67.8384 19.9564 67.9975 19.5256L71.3583 19.9034C71.1462 20.7917 70.7419 21.5672 70.1453 22.2301C69.5553 22.8864 68.7996 23.3968 67.8782 23.7614C66.9568 24.1193 65.9028 24.2983 64.7163 24.2983Z" fill="black"/>
<path d="M39.6 0L38 1.55556L42 7L46 1.55556L44.4 0H39.6Z" fill="#5FCFFF"/>
</svg>
